<mxfile host="app.diagrams.net" modified="2024-05-13T14:39:17.494Z" agent="Mozilla/5.0 (X11; Linux x86_64; rv:123.0) Gecko/20100101 Firefox/123.0" version="24.4.0" etag="HvZ-9w4LwljA4y3V2jmJ" type="github">
  <diagram name="PÃ¡gina-1" id="mkqZ174D0ROey95kUa9w">
    <mxGraphModel>
      <root>
        <mxCell id="0" />
        <mxCell id="1" parent="0" />
      </root>
    </mxGraphModel>
  </diagram>
</mxfile>
